:version 1.10
:name ASF
:units
  mass 1
  length 1
  angle deg
:documentation
  ASF file generated by Kaydara
:root
  axis xyz
  order  tx ty tz rx ry rz
  position 0 0 0
  orientation 0 0 0
:bonedata
  begin
    id 1
    name SpineDummy
    direction 0.999998 -0.00179978 1.38929e-006
    length 3.60008
    axis 0 0 0 xyz
  end
  begin
    id 2
    name Spine
    direction 0.964365 0.262802 0.0305839
    length 8.13928
    axis 1.33928 -1.75354 15.2838 xyz
    dof rx ry rz
  end
  begin
    id 3
    name Spine1
    direction 0.811168 0.572065 0.12144
    length 7.14954
    axis 2.2224 -6.9761 35.2157 xyz
    dof rx ry rz
  end
  begin
    id 4
    name Neck
    direction 0 0 0
    length 0
    axis 2.2224 -6.9761 35.2157 xyz
    dof rx ry rz
  end
  begin
    id 5
    name HeadDummy
    direction 0.810939 0.572387 0.121455
    length 3.55534
    axis 2.2224 -6.9761 35.2157 xyz
  end
  begin
    id 6
    name Head
    direction 0.998226 -0.000232542 0.0595419
    length 7.35666
    axis -3.03688 -3.41352 -0.0133467 xyz
    dof rx ry rz
  end
  begin
    id 7
    name R_ClavicleDummy
    direction 0.531669 -0.194489 -0.824319
    length 2.49392
    axis 2.2224 -6.9761 35.2157 xyz
  end
  begin
    id 8
    name R_Clavicle
    direction -0.155119 0.0480802 -0.986725
    length 4.485
    axis -54.2764 80.6538 162.779 xyz
    dof rx ry rz
  end
  begin
    id 9
    name R_UpperArm
    direction -0.955567 0.200068 -0.216484
    length 10.1122
    axis -72.9943 12.5026 168.175 xyz
    dof rx ry rz
  end
  begin
    id 10
    name R_Forearm
    direction -0.61433 0.385743 0.688332
    length 9.39148
    axis -117.015 -43.4982 147.875 xyz
    dof rx ry rz
  end
  begin
    id 11
    name R_Hand
    direction -0.699429 0.0170333 0.714499
    length 3.66324
    axis -45.0303 -36.7097 175.478 xyz
    dof rx ry rz
  end
  begin
    id 12
    name L_ClavicleDummy
    direction 0.40287 -0.36502 0.839319
    length 2.49392
    axis 2.2224 -6.9761 35.2157 xyz
  end
  begin
    id 13
    name L_Clavicle
    direction -0.231271 -0.0726419 0.970174
    length 4.485
    axis 18.4357 -75.9711 -162.563 xyz
    dof rx ry rz
  end
  begin
    id 14
    name L_UpperArm
    direction -0.917494 0.144359 0.370629
    length 10.1122
    axis 56.0417 -21.7544 171.058 xyz
    dof rx ry rz
  end
  begin
    id 15
    name L_Forearm
    direction -0.496786 0.615074 -0.612281
    length 9.39148
    axis 89.8094 37.7546 128.927 xyz
    dof rx ry rz
  end
  begin
    id 16
    name L_Hand
    direction -0.409932 0.64962 -0.640274
    length 3.66324
    axis -0.424369 32.133 128.52 xyz
    dof rx ry rz
  end
  begin
    id 17
    name L_ThighDummy
    direction -1.84081e-006 1.87549e-006 1
    length 3.13049
    axis 0 0 0 xyz
  end
  begin
    id 18
    name L_Thigh
    direction -0.947739 0.307978 0.083308
    length 17.9961
    axis 173.219 -4.77873 161.998 xyz
    dof rx ry rz
  end
  begin
    id 19
    name L_Calf
    direction -0.728814 -0.684427 0.0197583
    length 13.3367
    axis 167.331 -1.13214 -136.799 xyz
    dof rx ry rz
  end
  begin
    id 20
    name L_Foot
    direction -0.9028 0.418719 0.0981191
    length 5.8674
    axis 163.436 11.5135 -155.37 xyz
    dof rx ry rz
  end
  begin
    id 21
    name L_Toe0
    direction -0.35341 0.886259 0.299411
    length 4.75286
    axis 169.316 -17.4222 111.74 xyz
    dof rx ry rz
  end
  begin
    id 22
    name R_ThighDummy
    direction 9.32778e-007 -8.82053e-007 -1
    length 3.13049
    axis 0 0 0 xyz
  end
  begin
    id 23
    name R_Thigh
    direction -0.925064 0.37528 -0.0585023
    length 17.9961
    axis -178.698 3.35385 157.919 xyz
    dof rx ry rz
  end
  begin
    id 24
    name R_Calf
    direction -0.68969 -0.718776 -0.0876886
    length 13.3367
    axis -160.504 5.03065 -133.817 xyz
    dof rx ry rz
  end
  begin
    id 25
    name R_Foot
    direction -0.857405 0.418858 -0.299022
    length 5.8674
    axis -161.328 4.38911 -154.413 xyz
    dof rx ry rz
  end
  begin
    id 26
    name R_Toe0
    direction -0.100745 0.952789 -0.286433
    length 4.75286
    axis 171.683 16.6445 96.0359 xyz
    dof rx ry rz
  end
:hierarchy
  begin
    root SpineDummy L_ThighDummy R_ThighDummy
    SpineDummy Spine
    Spine Spine1
    Spine1 Neck
    Neck HeadDummy R_ClavicleDummy L_ClavicleDummy
    HeadDummy Head
    R_ClavicleDummy R_Clavicle
    R_Clavicle R_UpperArm
    R_UpperArm R_Forearm
    R_Forearm R_Hand
    L_ClavicleDummy L_Clavicle
    L_Clavicle L_UpperArm
    L_UpperArm L_Forearm
    L_Forearm L_Hand
    L_ThighDummy L_Thigh
    L_Thigh L_Calf
    L_Calf L_Foot
    L_Foot L_Toe0
    R_ThighDummy R_Thigh
    R_Thigh R_Calf
    R_Calf R_Foot
    R_Foot R_Toe0
  end

:SAMPLES-PER-SECOND 30
:FULLY-SPECIFIED
:DEGREES
428
root  -12.9569 18.8162 -26.0356 51.7475 6.7037 142.298
Spine  -15.052 -11.4297 26.2887
Spine1  -14.9297 40.855 -11.4237
Neck  3.97569e-016 0 -2.38542e-015
Head  18.6926 -7.40369 10.8018
R_Clavicle  0.603454 2.55617 2.98212
R_UpperArm  50.4645 -1.03942 -2.32299
R_Forearm  49.4402 6.36025 -6.7849
R_Hand  -29.8736 27.928 -100.904
L_Clavicle  0.429126 7.26871 -8.10025
L_UpperArm  -35.2499 -16.3028 -12.5246
L_Forearm  -50.8347 37.29 62.7308
L_Hand  0.151028 -3.42684 8.5894
L_Thigh  -11.3016 8.10484 22.3198
L_Calf  37.9241 -1.17964 9.07154
L_Foot  -8.22586 -27.1373 14.6704
L_Toe0  2.6696 -0.900458 5.19034
R_Thigh  -5.25454 -6.95234 20.7226
R_Calf  12.0666 -16.0687 -63.15
R_Foot  3.57652 12.1256 23.3794
R_Toe0  -21.9904 11.3927 8.50533
429
root  -13.2982 19.4362 -27.2044 50.6602 -2.91663 143.741
Spine  -13.2193 -10.1683 25.9497
Spine1  -14.3375 38.2444 -12.4678
Neck  3.97569e-016 0 -2.38542e-015
Head  17.994 -6.3731 6.71736
R_Clavicle  0.692247 3.66818 3.33768
R_UpperArm  50.4821 -1.10635 -4.52103
R_Forearm  60.7108 5.85304 -6.35001
R_Hand  -27.4785 24.4256 -101.956
L_Clavicle  0.229679 9.71373 -8.89692
L_UpperArm  -34.3147 -13.2308 -3.51547
L_Forearm  -76.2305 30.8505 39.1409
L_Hand  -0.286643 -12.7525 5.32306
L_Thigh  -12.6801 11.57 29.8151
L_Calf  23.0985 -1.49509 11.1182
L_Foot  -3.72197 -16.357 8.59952
L_Toe0  -5.12736 0.384525 -4.06738
R_Thigh  -5.38104 -17.6635 17.7589
R_Calf  19.5401 -14.8962 -55.5507
R_Foot  1.24525 7.56076 20.8717
R_Toe0  10.968 -4.2846 4.64857
430
root  -13.7687 20.0138 -27.5921 47.8704 -10.4299 144.258
Spine  -10.6018 -8.62035 24.5436
Spine1  -11.8688 32.3446 -11.3306
Neck  3.97569e-016 0 -2.38542e-015
Head  16.2945 -5.90672 2.55966
R_Clavicle  0.789876 1.90703 3.87534
R_UpperArm  51.1391 -0.165594 -4.85396
R_Forearm  66.4055 5.96686 -6.24202
R_Hand  -28.4669 25.4033 -102.352
L_Clavicle  -0.0974523 12.7879 -9.04458
L_UpperArm  -35.5085 -12.161 0.90257
L_Forearm  -85.385 22.8196 25.9374
L_Hand  -0.0750864 -21.2769 1.07222
L_Thigh  -3.97774 10.4294 32.7155
L_Calf  4.39145 -0.808589 5.82528
L_Foot  1.83713 -2.31909 12.7214
L_Toe0  -3.47191 0.211132 -3.72853
R_Thigh  -4.53214 -26.8507 16.5176
R_Calf  25.8913 -11.8867 -40.7833
R_Foot  0.311353 5.32115 17.8056
R_Toe0  32.6353 -12.4777 0.350346
431
root  -14.0506 20.4709 -27.3539 41.6085 -17.3242 143.716
Spine  -6.94131 -5.80304 22.0608
Spine1  -7.7749 22.41 -9.17199
Neck  3.97569e-016 0 -2.38542e-015
Head  14.8542 -5.579 -1.77589
R_Clavicle  0.75476 -1.13955 3.94252
R_UpperArm  51.4745 1.55894 -2.83268
R_Forearm  71.383 6.08331 -6.60402
R_Hand  -29.7188 26.4843 -103.122
L_Clavicle  -0.380478 15.305 -8.31547
L_UpperArm  -37.9098 -9.81691 1.43899
L_Forearm  -90.0153 13.664 16.0671
L_Hand  2.01228 -29.7829 -9.21815
L_Thigh  9.0162 7.04685 31.0962
L_Calf  -3.10884 0.915387 -6.95937
L_Foot  3.97687 -0.218287 19.2386
L_Toe0  -11.3163 1.62495 1.03134
R_Thigh  -2.80708 -32.9662 18.5059
R_Calf  27.8078 -7.44254 -23.8634
R_Foot  1.97274 8.61899 16.5373
R_Toe0  24.2706 -9.46966 0.325307
432
root  -13.99 20.5533 -26.9681 32.4539 -24.6096 141.577
Spine  -2.08784 -1.47025 20.5669
Spine1  -2.94625 10.0818 -8.84134
Neck  3.97569e-016 0 -2.38542e-015
Head  13.8407 -6.10844 -5.5375
R_Clavicle  0.514158 -3.72176 2.71583
R_UpperArm  52.0846 1.72682 1.12085
R_Forearm  76.1674 6.05875 -6.89805
R_Hand  -30.6319 26.8844 -104.213
L_Clavicle  -0.575336 17.238 -7.62168
L_UpperArm  -39.3024 -5.04752 1.50714
L_Forearm  -95.2994 3.40321 5.51494
L_Hand  8.10356 -35.0462 -28.6805
L_Thigh  17.3455 3.2854 26.8936
L_Calf  2.2972 3.14304 -23.8715
L_Foot  5.09225 0.656047 22.3284
L_Toe0  -14.6561 3.08632 2.97653
R_Thigh  0.817537 -33.7898 22.4668
R_Calf  28.6654 -3.36159 -10.3696
R_Foot  4.76035 14.5852 18.3048
R_Toe0  8.65499 -1.22401 -10.2775
433
root  -13.79 20.3967 -26.6671 23.7212 -32.6932 136.208
Spine  4.3821 4.85854 21.7056
Spine1  2.58356 -2.88461 -9.4191
Neck  3.97569e-016 0 -2.38542e-015
Head  12.7773 -7.81034 -8.41119
R_Clavicle  0.180247 -3.90771 0.625907
R_UpperArm  55.2812 -1.0269 5.46374
R_Forearm  79.9183 7.01934 -6.67791
R_Hand  -33.7578 33.5969 -99.6904
L_Clavicle  -0.575332 17.4048 -6.34167
L_UpperArm  -37.5834 -1.81663 -0.1144
L_Forearm  -96.2705 -0.553565 0.5711
L_Hand  11.0537 -31.5903 -43.8232
L_Thigh  18.6975 -0.893588 21.6427
L_Calf  3.7169 4.88425 -38.8135
L_Foot  5.95216 1.86157 23.5668
L_Toe0  1.63587 -0.226369 -5.74184
R_Thigh  6.19446 -29.0025 24.9437
R_Calf  19.7825 -0.349326 -0.892365
R_Foot  4.9127 14.8259 18.9164
R_Toe0  0.704368 -0.210578 -15.8922
434
root  -13.7028 20.1384 -26.5431 19.3081 -40.5061 126.84
Spine  11.7617 11.2713 26.807
Spine1  8.33551 -15.2996 -11.5509
Neck  3.97569e-016 0 -2.38542e-015
Head  11.4594 -10.142 -9.6964
R_Clavicle  -0.37157 -1.34977 -2.12532
R_UpperArm  61.7233 -5.00341 8.84991
R_Forearm  75.8945 6.87027 -3.72749
R_Hand  -33.5979 53.2542 -77.5181
L_Clavicle  -0.499603 16.667 -4.43947
L_UpperArm  -33.4549 -2.96477 -2.56532
L_Forearm  -93.5502 2.67334 0.751447
L_Hand  11.8403 -31.8425 -46.3234
L_Thigh  15.1706 -6.5151 16.9297
L_Calf  0.456772 5.77684 -47.8413
L_Foot  5.86709 0.504508 25.836
L_Toe0  0.409817 0.0450828 -6.33898
R_Thigh  11.9358 -22.0498 23.0645
R_Calf  5.8564 1.56329 5.09578
R_Foot  5.38559 15.8409 18.1644
R_Toe0  -1.48798 -0.259019 -17.16
